<svg width="16.000000" height="16.000000" viewBox="0 0 16 16" fill="none" xmlns="http://www.w3.org/2000/svg" xmlns:xlink="http://www.w3.org/1999/xlink">
	<desc>
			Created with Pixso.
	</desc>
	<defs>
		<clipPath id="clip195_69314">
			<rect id="check" width="16.000000" height="16.000000" fill="white" fill-opacity="0"/>
		</clipPath>
	</defs>
	<g clip-path="url(#clip195_69314)">
		<path id="path" d="M11.5 16L4.5 16C3.9 16 3.32 15.88 2.77 15.65C2.22 15.42 1.73 15.1 1.31 14.68C0.89 14.26 0.57 13.77 0.34 13.22C0.11 12.67 0 12.09 0 11.5L0 4.5C0 3.9 0.11 3.32 0.34 2.77C0.57 2.22 0.89 1.73 1.31 1.31C1.73 0.89 2.22 0.57 2.77 0.34C3.32 0.11 3.9 0 4.5 0L11.5 0C12.09 0 12.67 0.11 13.22 0.34C13.77 0.57 14.26 0.89 14.68 1.31C15.1 1.73 15.42 2.22 15.65 2.77C15.88 3.32 16 3.9 16 4.5L16 11.5C16 12.09 15.88 12.67 15.65 13.22C15.42 13.77 15.1 14.26 14.68 14.68C14.26 15.1 13.77 15.42 13.22 15.65C12.67 15.88 12.09 16 11.5 16Z" fill="#FFFFFF" fill-opacity="1.000000" fill-rule="nonzero"/>
		<path id="path" d="M11.5 16L4.5 16C3.9 16 3.32 15.88 2.77 15.65C2.22 15.42 1.73 15.1 1.31 14.68C0.89 14.26 0.57 13.77 0.34 13.22C0.11 12.67 0 12.09 0 11.5L0 4.5C0 3.9 0.11 3.32 0.34 2.77C0.57 2.22 0.89 1.73 1.31 1.31C1.73 0.89 2.22 0.57 2.77 0.34C3.32 0.11 3.9 0 4.5 0L11.5 0C12.09 0 12.67 0.11 13.22 0.34C13.77 0.57 14.26 0.89 14.68 1.31C15.1 1.73 15.42 2.22 15.65 2.77C15.88 3.32 16 3.9 16 4.5L16 11.5C16 12.09 15.88 12.67 15.65 13.22C15.42 13.77 15.1 14.26 14.68 14.68C14.26 15.1 13.77 15.42 13.22 15.65C12.67 15.88 12.09 16 11.5 16ZM4.5 1C3.53 1 2.7 1.33 2.02 2.02C1.33 2.7 1 3.53 1 4.5L1 11.5C1 12.46 1.33 13.29 2.02 13.97C2.7 14.66 3.53 15 4.5 15L11.5 15C12.46 15 13.29 14.66 13.97 13.97C14.66 13.29 15 12.46 15 11.5L15 4.5C15 3.53 14.66 2.7 13.97 2.02C13.29 1.33 12.46 1 11.5 1L4.5 1Z" fill="#000000" fill-opacity="1.000000" fill-rule="nonzero"/>
	</g>
</svg>
