<svg viewBox="0 0 21.75 20.25" xmlns="http://www.w3.org/2000/svg" xmlns:xlink="http://www.w3.org/1999/xlink" width="21.75" height="20.2500229" fill="none" customFrame="#000000">
	<rect id="FolderOpenedSolid" width="24" height="24" x="0" y="0" />
	<path id="path1" d="M0.00291621 11.9902C0.00291621 10.1155 -0.00364527 8.2408 0.00291621 6.36609C-0.000855476 5.45892 0.110645 4.55495 0.33474 3.67588C0.825914 1.81523 2.03791 0.711029 3.89669 0.282657C4.8287 0.0812876 5.78065 -0.0130583 6.73406 0.001451C10.3291 0.001451 13.9245 0.001451 17.5202 0.001451C18.4283 -0.00418604 19.3337 0.0996723 20.217 0.310778C22.132 0.779456 23.2812 1.99239 23.7189 3.90085C23.9157 4.80281 24.0098 5.72417 23.9992 6.6473C23.9992 10.2811 23.9992 13.9152 23.9992 17.5497C24.0041 18.449 23.9006 19.3457 23.6908 20.2202C23.2221 22.1361 22.0036 23.2797 20.0951 23.7175C19.163 23.9181 18.2111 24.0124 17.2577 23.9987C13.6777 23.9987 10.0979 23.9987 6.51847 23.9987C5.60344 24.0061 4.69082 23.9039 3.80014 23.694C1.87669 23.2254 0.721867 22.0068 0.28506 20.089C0.0619696 19.1141 0.00291621 18.1365 0.00291621 17.1504C0.00291621 15.4306 0.00291621 13.7106 0.00291621 11.9902Z" opacity="0" fill-rule="evenodd" />
	<path id="矢量 21" d="M7.52081 3.75002C7.75958 3.75002 7.99561 3.7959 8.21655 3.88454L8.37933 3.95901L11.798 5.72401L16.9753 5.72389C18.1883 5.72389 19.1027 6.21819 19.5991 7.17568L19.6873 7.36063C19.8531 7.74019 19.6799 8.18234 19.3004 8.34822C18.9208 8.51409 18.4786 8.34088 18.3127 7.96133C18.1094 7.49605 17.7546 7.2614 17.1357 7.22806L16.9754 7.22389L11.7926 7.22417C11.6011 7.22385 11.4119 7.18667 11.2369 7.11583L11.1085 7.05644L7.6911 5.2918C7.65546 5.2734 7.61774 5.26096 7.5791 5.25471L7.52081 5.25002L5.2973 5.25002C4.49512 5.25002 3.828 5.89185 3.75635 6.72038L3.75 6.86844L3.75 14.5667L4.75043 11.1789C4.9566 10.0755 5.92249 9.27634 7.0473 9.27634L19.4136 9.27634C20.7032 9.27634 21.75 10.3183 21.75 11.6053C21.75 11.7483 21.7368 11.8911 21.6927 12.1059L19.8495 18.3475C19.6434 19.4509 18.6774 20.25 17.5527 20.25L5.18628 20.25C4.89355 20.25 4.61333 20.1963 4.35502 20.0983C3.18512 19.7097 2.3288 18.617 2.25513 17.3143L2.25 17.1316L2.25 6.86844C2.25 5.21254 3.51379 3.8505 5.11774 3.75533L5.2973 3.75002L7.52081 3.75002Z" fill="rgb(25,25,25)" fill-rule="evenodd" />
</svg>
