<svg viewBox="0 0 21.75 20.25" xmlns="http://www.w3.org/2000/svg" xmlns:xlink="http://www.w3.org/1999/xlink" width="21.75" height="20.25" fill="none" customFrame="#000000">
	<rect id="FolderClosedSolid" width="24" height="24" x="0" y="0" />
	<path id="path1" d="M0.00291621 11.9902C0.00291621 10.1155 -0.00364527 8.2408 0.00291621 6.36609C-0.000855476 5.45892 0.110645 4.55495 0.33474 3.67588C0.825914 1.81523 2.03791 0.711029 3.89669 0.282657C4.8287 0.0812876 5.78065 -0.0130583 6.73406 0.001451C10.3291 0.001451 13.9245 0.001451 17.5202 0.001451C18.4283 -0.00418604 19.3337 0.0996723 20.217 0.310778C22.132 0.779456 23.2812 1.99239 23.7189 3.90085C23.9157 4.80281 24.0098 5.72417 23.9992 6.6473C23.9992 10.2811 23.9992 13.9152 23.9992 17.5497C24.0041 18.449 23.9006 19.3457 23.6908 20.2202C23.2221 22.1361 22.0036 23.2797 20.0951 23.7175C19.163 23.9181 18.2111 24.0124 17.2577 23.9987C13.6777 23.9987 10.0979 23.9987 6.51847 23.9987C5.60344 24.0061 4.69082 23.9039 3.80014 23.694C1.87669 23.2254 0.721867 22.0068 0.28506 20.089C0.0619696 19.1141 0.00291621 18.1365 0.00291621 17.1504C0.00291621 15.4306 0.00291621 13.7106 0.00291621 11.9902Z" opacity="0" fill-rule="evenodd" />
	<path id="矢量 49" d="M5.34784 3.75L7.02258 3.75C7.65271 3.75 8.25687 4.0008 8.69897 4.44679L8.99957 4.75003L9 4.75L16.6 4.75C18.2913 4.75 19.6531 6.14664 19.7451 7.88403L19.7457 7.91013C20.9181 8.36355 21.75 9.49232 21.75 10.8158L21.75 17.1316C21.75 18.8561 20.3375 20.25 18.6 20.25L5.39999 20.25C3.66251 20.25 2.25 18.8561 2.25 17.1316L2.25 6.81693C2.25 5.12087 3.63916 3.75 5.34784 3.75ZM18.2153 7.69736C18.0674 6.91418 17.4648 6.32477 16.7407 6.2566L16.6 6.25L10.4865 6.25L11.6707 7.44456C11.8306 7.60587 12.051 7.69736 12.2818 7.69736L18.2153 7.69736Z" fill="rgb(25,25,25)" fill-rule="evenodd" />
</svg>
