<svg width="16.000000" height="16.000000" viewBox="0 0 16 16" fill="none" xmlns="http://www.w3.org/2000/svg"
    xmlns:xlink="http://www.w3.org/1999/xlink">
    <g >
        <path
            d="M13.71 0C14.97 0 16 1.02 16 2.28v11.43c0 1.26-1.03 2.29-2.29 2.29H2.28C1.02 16 0 14.97 0 13.71V2.28C0 1.02 1.02 0 2.28 0h11.43Zm-3.04 4.57H5.32c-.38 0-.69.27-.75.64v5.46c0 .38.28.69.64.74l5.46.01c.38 0 .69-.27.75-.64V5.32c0-.38-.39-.7-.75-.75Z"
            fill-opacity="0"></path>
        <path
            d="M16 2.28v11.43c0 1.26-1.03 2.29-2.29 2.29H2.28C1.02 16 0 14.97 0 13.71V2.28C0 1.02 1.02 0 2.28 0h11.43C14.97 0 16 1.02 16 2.28ZM5.32 4.57c-.38 0-.69.27-.75.64v5.46c0 .38.28.69.64.74l5.46.01c.38 0 .69-.27.75-.64V5.32c0-.38-.39-.7-.75-.75H5.32Z">
        </path>
        <path
            d="M10.67 4.57H5.32c-.38 0-.69.28-.75.64v5.46c0 .38.27.69.64.75h5.46c.38 0 .69-.27.74-.64l.01-5.46c0-.38-.39-.7-.75-.75Z"
            fill="#FFF"></path>
        <path
            d="M5.32 4.57c-.38 0-.69.28-.75.64v5.46c0 .38.27.69.64.75h5.46c.38 0 .69-.27.74-.64l.01-5.46c0-.38-.39-.7-.75-.75H5.32Z" fill="#FFF">
        </path>
    </g>
</svg>