<svg width="16.000000" height="16.000000" viewBox="0 0 16 16" fill="none" xmlns="http://www.w3.org/2000/svg" xmlns:xlink="http://www.w3.org/1999/xlink">
	<desc>
			Created with Pixso.
	</desc>
	<defs/>
	<path id="Rectangle  (边框)" d="M16 4C16 2 14 0 12 0L4 0C2 0 0 2 0 4L0 12C0 14 2 16 4 16L12 16C14 16 16 14 16 12L16 4Z" fill="#fff" fill-opacity="1.000000" fill-rule="evenodd"/>
	<path id="Rectangle  (边框)" d="M16 4C16 1.79 14.2 0 12 0L4 0C1.79 0 0 1.79 0 4L0 12C0 14.2 1.79 16 4 16L12 16C14.2 16 16 14.2 16 12L16 4ZM15 4C15 2.34 13.65 1 12 1L4 1C2.34 1 1 2.34 1 4L1 12C1 13.65 2.34 15 4 15L12 15C13.65 15 15 13.65 15 12L15 4Z" fill="#191919" fill-opacity="1.000000" fill-rule="evenodd"/>
</svg>