<?xml version="1.0" encoding="UTF-8"?>
<svg id="_图层_1" data-name="图层 1" xmlns="http://www.w3.org/2000/svg" viewBox="0 0 16 16">
  <defs>
    <style>
      .cls-1 {
        fill: var(--tv-color-error-icon);
      }

      .cls-1, .cls-2 {
        fill-rule: evenodd;
      }

      .cls-2 {
        fill: #fff;
      }
    </style>
  </defs>
  <path id="_路径" data-name="路径" class="cls-1" d="m8,1c-3.87,0-7,3.13-7,7s3.13,7,7,7,7-3.14,7-7S11.86,1,8,1Z"/>
  <path id="_形状结合" data-name="形状结合" class="cls-2" d="m10.62,4.9c.13,0,.24.05.34.14.09.09.14.2.14.34s-.05.24-.14.34l-2.29,2.29,2.29,2.29c.09.09.14.2.14.34s-.05.24-.14.34c-.09.09-.2.14-.34.14s-.24-.05-.34-.14l-2.29-2.29-2.29,2.29c-.09.09-.2.14-.34.14s-.24-.05-.34-.14c-.09-.09-.14-.2-.14-.34s.05-.24.14-.34l2.29-2.29-2.29-2.29c-.09-.09-.14-.2-.14-.34s.05-.24.14-.34c.09-.09.2-.14.34-.14s.24.05.34.14l2.29,2.29,2.29-2.29c.09-.09.2-.14.34-.14Z"/>
</svg>