<svg width="80.000000" height="80.000000" viewBox="0 0 80 80" fill="none" xmlns="http://www.w3.org/2000/svg" xmlns:xlink="http://www.w3.org/1999/xlink">
	<desc>
			Created with Pixso.
	</desc>
	<defs/>
	<rect id="暂无数据-no-data" width="80.000000" height="80.000000" fill="#FFFFFF" fill-opacity="0"/>
	<path id="矩形备份" d="M12.5 24.87L69.68 24.87C71.78 24.87 73.5 26.58 73.5 28.69L73.5 70.1C73.5 72.18 71.81 73.87 69.73 73.87L16.26 73.87C14.18 73.87 12.5 72.18 12.5 70.1L12.5 24.87Z" fill="var(--tv-color-no-data-gary-1)" fill-opacity="1.000000" fill-rule="evenodd"/>
	<path id="矩形" d="M8.81 25.37L56.5 25.37L56.5 70.1C56.5 72.18 54.81 73.87 52.73 73.87L11.26 73.87C9.18 73.87 7.5 72.08 7.5 70L7.5 39.5L0.5 39.5C0.5 38.77 8.09 25.37 8.81 25.37Z" fill="var(--tv-color-no-data-gary-2)" fill-opacity="1.000000" fill-rule="evenodd"/>
	<path id="矩形备份-4" d="M56.29 25.37L70.09 25.37C70.77 25.37 71.6 25.24 71.94 25.84L78.71 37.97C78.97 38.42 79.45 39.12 79 39.37C78.85 39.45 78.05 39.37 77.89 39.37L66.22 39.37C64.8 39.37 63.51 38.58 62.86 37.32L56.29 25.37Z" fill="var(--tv-color-no-data-gary-2)" fill-opacity="1.000000" fill-rule="evenodd"/>
	<path id="矩形备份" d="M73.61 39.39L73.61 70.06C73.61 72.23 71.85 73.99 69.67 73.99L52.59 73.99L52.59 73.12L69.67 73.12C71.37 73.12 72.74 71.75 72.74 70.06L72.74 39.39L73.61 39.39Z" fill="var(--tv-color-no-data-border)" fill-opacity="1.000000" fill-rule="nonzero"/>
	<path id="矩形" d="M56.92 25L56.92 70.06C56.92 72.23 55.15 73.99 52.98 73.99L10.94 73.99C8.77 73.99 7 72.23 7 70.06L7 39.39L7.88 39.39L7.88 70.06C7.88 71.75 9.25 73.12 10.94 73.12L52.98 73.12C54.67 73.12 56.04 71.75 56.04 70.06L56.04 25.87L10.67 25.87L10.67 25L56.92 25Z" fill="var(--tv-color-no-data-border)" fill-opacity="1.000000" fill-rule="nonzero"/>
	<path id="矩形" d="M9.43 25C8.83 25 8.28 25.31 7.97 25.82L0.13 38.64C-0.13 39.06 0 39.6 0.4 39.86C0.54 39.95 0.7 40 0.86 40L45.68 40C46.85 40 47.94 39.39 48.58 38.38L57.04 25L9.43 25ZM9.65 26L55.17 26L47.65 37.81C47.18 38.55 46.37 39 45.51 39L1.17 39L8.92 26.4C9.08 26.15 9.35 26 9.65 26Z" fill="var(--tv-color-no-data-border)" fill-opacity="1.000000" fill-rule="nonzero"/>
	<path id="矩形备份-4" d="M70.75 25C71.31 25 71.83 25.3 72.14 25.8L79.86 38.52C80.11 38.93 80 39.47 79.61 39.73C79.48 39.82 79.33 39.87 79.17 39.87L66.14 39.87C64.97 39.87 63.89 39.21 63.29 38.14L55.98 25L70.75 25ZM70.72 26L57.79 26L64.18 37.71C64.61 38.51 65.4 39 66.26 39L78.89 39L71.4 26.39C71.25 26.15 71 26 70.72 26Z" fill="var(--tv-color-no-data-border)" fill-opacity="1.000000" fill-rule="nonzero"/>
	<rect id="矩形" x="13.500000" y="56.000000" rx="1.886225" width="14.000000" height="4.000000" fill="var(--tv-color-no-data-brand)" fill-opacity="1.000000"/>
	<path id="矩形备份-2" d="M23.56 63C23.8 63 24 63.22 24 63.5C24 63.77 23.8 64 23.56 64L13.93 64C13.69 64 13.5 63.77 13.5 63.5C13.5 63.22 13.69 63 13.93 63L23.56 63Z" fill="var(--tv-color-no-data-border)" fill-opacity="1.000000" fill-rule="nonzero"/>
	<rect id="矩形备份-3" x="13.500000" y="66.000000" rx="0.500000" width="5.000000" height="1.000000" fill="var(--tv-color-no-data-border)" fill-opacity="1.000000"/>
	<path id="路径备份" d="M40 6C40.27 6 40.5 6.19 40.5 6.44L40.5 12.6C40.5 12.85 40.27 13.04 40 13.04C39.72 13.04 39.49 12.85 39.49 12.6L39.49 6.44C39.49 6.19 39.72 6 40 6Z" fill="var(--tv-color-no-data-border)" fill-opacity="1.000000" fill-rule="nonzero"/>
	<path id="路径备份" d="M56.55 8.64C56.79 8.78 56.89 9.06 56.76 9.27L53.68 14.61C53.56 14.82 53.26 14.88 53.02 14.74C52.78 14.6 52.69 14.32 52.81 14.11L55.89 8.77C56.01 8.56 56.31 8.5 56.55 8.64Z" fill="var(--tv-color-no-data-border)" fill-opacity="1.000000" fill-rule="nonzero"/>
	<path id="路径备份" d="M23.44 8.64C23.68 8.5 23.98 8.56 24.1 8.77L27.18 14.11C27.3 14.32 27.21 14.6 26.97 14.74C26.73 14.88 26.43 14.82 26.31 14.61L23.23 9.27C23.1 9.06 23.2 8.78 23.44 8.64Z" fill="var(--tv-color-no-data-border)" fill-opacity="1.000000" fill-rule="nonzero"/>
</svg>
