<svg width="22.998047" height="23.000122" viewBox="0 0 22.998 23.0001" fill="none" xmlns="http://www.w3.org/2000/svg" xmlns:xlink="http://www.w3.org/1999/xlink">
	<desc>
			Created with Pixso.
	</desc>
	<defs/>
	<path id="合并" d="M16.0813 6.23767Q16.0835 6.13452 16.0835 6.03149C16.0835 5.20892 15.9954 4.46033 15.8188 3.78577C15.6219 3.03314 15.3186 2.38605 14.9089 1.84448C14.6931 1.5592 14.4507 1.30664 14.1816 1.08655C13.8877 0.846191 13.5618 0.644653 13.2039 0.482178C12.4962 0.160706 11.6782 0 10.7498 0C9.82141 0 9.00342 0.160706 8.29565 0.482178C7.93799 0.644714 7.61206 0.84613 7.31812 1.08655Q7.31409 1.0899 7.30994 1.09326Q6.91113 1.42096 6.59082 1.84448C6.18115 2.38605 5.87793 3.03314 5.68091 3.78577C5.50439 4.46033 5.41602 5.20892 5.41602 6.03149C5.4165 6.07983 5.41748 6.18933 5.41846 6.23767C5.35938 6.31763 5.30591 6.40344 5.25806 6.495C5.1543 6.69324 5.08142 6.90961 5.03955 7.14417C5.02051 7.25024 5.00806 7.35669 5.00195 7.46362C4.98181 7.82306 5.03516 8.18671 5.16211 8.55444C5.27124 8.87061 5.42334 9.15308 5.61865 9.40173C5.66821 9.46484 5.72046 9.52588 5.77563 9.58472C5.97461 9.79675 6.19165 9.96179 6.42676 10.0797C6.5697 10.3322 6.72607 10.5701 6.89575 10.7932C7.0769 11.0475 7.26611 11.3573 7.34497 11.5592C7.40625 11.7155 7.43359 11.8453 7.427 11.949C7.42456 11.9871 7.41602 12.0226 7.40161 12.0555C7.34204 12.1337 7.20483 12.2708 7.06299 12.343C6.927 12.4121 6.7373 12.4952 6.4939 12.5923C6.33691 12.6548 6.07397 12.7551 5.70483 12.8933C4.9458 13.1775 4.36426 13.4075 3.96021 13.5834C3.25122 13.8922 2.65063 14.2067 2.1582 14.5272C1.01172 15.2737 0.324341 16.129 0.0959473 17.0929C0.0383301 17.3357 0.0100098 17.5853 0.0107422 17.842C0.0107422 17.9712 0.00878906 18.1613 0.00463867 18.4121C-0.00244141 18.8506 -0.00146484 19.1697 0.0078125 19.3694C0.0249023 19.7365 0.072998 20.0436 0.151855 20.2908C0.248901 20.594 0.398438 20.8425 0.600342 21.0361C0.641846 21.0758 0.685303 21.1133 0.731201 21.1483C1.00586 21.3411 1.39526 21.4843 1.79395 21.5004L10.2117 21.5005C9.81372 21.0432 9.4668 20.5404 9.17993 20.0009L1.84106 20.001Q1.69019 19.9934 1.64331 19.9574C1.6228 19.9419 1.60205 19.9008 1.58081 19.8341C1.54211 19.7128 1.51733 19.5348 1.50635 19.2999C1.49854 19.1315 1.49792 18.8437 1.50439 18.4365C1.50854 18.1776 1.51074 17.9794 1.51074 17.842C1.5105 17.7543 1.51685 17.6676 1.53003 17.5819C1.57349 17.2977 1.69019 17.0247 1.88037 16.7629C2.12378 16.4279 2.48926 16.1017 2.97656 15.7843C3.39917 15.5093 3.92651 15.2341 4.55908 14.9587C4.93896 14.7933 5.49622 14.5731 6.23071 14.2981C6.60986 14.1562 6.88257 14.0521 7.04932 13.9856C7.33521 13.8716 7.56641 13.7698 7.74292 13.6799C8.08887 13.504 8.36084 13.286 8.55884 13.0258C8.66504 12.8861 8.74829 12.7377 8.80884 12.5803C8.87354 12.4116 8.91187 12.2329 8.92383 12.0439C8.96228 11.4383 8.71338 10.7587 8.17725 10.0051C8.17578 10.0031 8.10181 9.901 8.1001 9.89893C7.92749 9.67273 7.76562 9.41638 7.6272 9.14648C7.5813 9.05676 7.51978 8.97949 7.44238 8.91455C7.36523 8.84973 7.27856 8.80237 7.18213 8.77246C7.07715 8.73987 6.9729 8.66858 6.86987 8.55847C6.74365 8.42419 6.64722 8.25964 6.58008 8.06506C6.50024 7.83423 6.479 7.61523 6.51611 7.40833C6.5437 7.25415 6.59497 7.14465 6.66992 7.07996C6.75854 7.00366 6.82544 6.91174 6.87109 6.80408C6.9165 6.69653 6.93579 6.58447 6.92896 6.46777C6.92065 6.32642 6.91626 6.18494 6.91602 6.04358C6.91602 5.34961 6.98804 4.71558 7.13208 4.16553C7.27881 3.60486 7.49707 3.13269 7.78711 2.74939C7.91406 2.5813 8.05566 2.4303 8.21191 2.29614L8.21228 2.29584Q9.13953 1.5 10.7498 1.5Q12.3606 1.5 13.2876 2.29614C13.4438 2.4303 13.5854 2.5813 13.7126 2.74939C14.0027 3.13269 14.2209 3.60486 14.3677 4.16553C14.5116 4.71558 14.5835 5.33759 14.5835 6.03149C14.5835 6.17688 14.5793 6.32251 14.5708 6.46838C14.5637 6.58521 14.5833 6.69751 14.6289 6.8053C14.6746 6.91296 14.7419 7.005 14.8306 7.0813C14.9055 7.14551 14.9567 7.25452 14.9841 7.40833C15.0212 7.61523 14.9998 7.83411 14.9202 8.06506C14.8792 8.18372 14.8273 8.2912 14.7644 8.38745C15.2451 8.29724 15.7412 8.25012 16.248 8.25012C16.3076 8.25012 16.3669 8.25073 16.426 8.25208C16.4889 7.98663 16.5129 7.72333 16.498 7.46216C16.4919 7.35571 16.4795 7.24951 16.4607 7.1438Q16.3973 6.79169 16.2417 6.49451C16.1936 6.40295 16.1401 6.31738 16.0813 6.23767ZM9.49805 16.2501C9.49805 12.5222 12.52 9.50012 16.248 9.50012C19.9758 9.50012 22.998 12.5222 22.998 16.2501C22.998 19.978 19.9758 23.0001 16.248 23.0001C12.52 23.0001 9.49805 19.978 9.49805 16.2501ZM10.998 16.2501C10.998 13.3506 13.3484 11.0001 16.248 11.0001C19.1475 11.0001 21.498 13.3506 21.498 16.2501C21.498 19.1497 19.1475 21.5001 16.248 21.5001C13.3484 21.5001 10.998 19.1497 10.998 16.2501ZM15.4716 12.35C15.8916 12.35 16.2216 12.68 16.2216 13.1L16.2216 16.1649L18.6844 17.5623C19.0498 17.7695 19.174 18.2194 18.9667 18.5847C18.7594 18.95 18.3096 19.0742 17.9443 18.8669L15.1014 17.254Q15.0134 17.204 14.9438 17.1353Q14.8744 17.0666 14.8235 16.9791Q14.7725 16.8916 14.7471 16.7972Q14.7216 16.7029 14.7216 16.6016L14.7216 13.1C14.7216 12.68 15.0515 12.35 15.4716 12.35Z" clip-rule="evenodd" fill="#191919" fill-opacity="1.000000" fill-rule="evenodd"/>
</svg>