<svg viewBox="0 0 24 24" xmlns="http://www.w3.org/2000/svg" xmlns:xlink="http://www.w3.org/1999/xlink" width="24" height="24" fill="none">
	<rect id="验收" width="24" height="24" x="0" y="0" fill="rgb(255,255,255)" fill-opacity="0" />
	<path id="矢量 9" d="M5.50732 2.159L5.94388 2.159C6.2207 2.159 6.42242 2.58869 6.42242 2.86551C6.42242 3.25013 6.11063 3.56193 5.72601 3.56193L5.50732 3.56193C5.34415 3.56193 5.18512 3.57988 5.03024 3.61578L5.02951 3.61595C4.91348 3.64289 4.79977 3.67991 4.68842 3.72701C4.57352 3.77562 4.46457 3.83339 4.36157 3.90033L4.3602 3.90123C4.23819 3.98069 4.12457 4.07305 4.01932 4.17829C3.91403 4.28356 3.82166 4.39723 3.74216 4.5193C3.67487 4.62265 3.61682 4.73202 3.56802 4.84741C3.5209 4.95886 3.48386 5.07269 3.45688 5.18888C3.42093 5.34386 3.40295 5.503 3.40295 5.66632L3.40295 20.5197C3.40295 20.683 3.42093 20.8422 3.45688 20.9972C3.48386 21.1134 3.5209 21.2272 3.56802 21.3386C3.61682 21.454 3.67487 21.5634 3.74216 21.6667C3.82166 21.7888 3.91403 21.9025 4.01932 22.0078Q4.17579 22.1643 4.3571 22.2828L4.35953 22.2844L4.36026 22.2848L4.36142 22.2856C4.46445 22.3526 4.57346 22.4104 4.68842 22.459C4.79916 22.5059 4.91226 22.5428 5.02768 22.5697L5.03027 22.5703C5.18512 22.6062 5.34415 22.6241 5.50732 22.6241L18.5003 22.6241C18.6635 22.6241 18.8225 22.6062 18.9773 22.5703L18.9799 22.5697C19.0953 22.5428 19.2084 22.5059 19.3192 22.459C19.4347 22.4102 19.5442 22.352 19.6477 22.2846C19.7696 22.2052 19.8831 22.1129 19.9883 22.0078C20.0935 21.9025 20.1859 21.789 20.2653 21.667C20.3326 21.5636 20.3907 21.4541 20.4396 21.3386C20.4867 21.2271 20.5238 21.1133 20.5508 20.997C20.5867 20.8421 20.6047 20.683 20.6047 20.5197L20.6047 5.66632C20.6047 5.50309 20.5867 5.34403 20.5508 5.18914C20.5239 5.07288 20.4868 4.95897 20.4396 4.84741C20.3907 4.73193 20.3326 4.62249 20.2653 4.51907C20.1859 4.39709 20.0935 4.28349 19.9883 4.17829C19.8832 4.07316 19.7697 3.98088 19.6477 3.90144C19.5443 3.83403 19.4348 3.77589 19.3192 3.72701C19.2078 3.67991 19.0941 3.64288 18.9781 3.61594C18.823 3.57993 18.6637 3.56193 18.5003 3.56193L18.2816 3.56193C17.897 3.56193 17.5852 3.25013 17.5852 2.86551C17.5852 2.58869 17.7869 2.159 18.0638 2.159L18.5003 2.159C18.7582 2.159 19.0103 2.18608 19.2563 2.24025L19.2569 2.24037C19.4641 2.28601 19.667 2.35086 19.8657 2.43491Q20.1577 2.55839 20.4188 2.72908Q20.4252 2.73331 20.4317 2.73757C20.6278 2.86707 20.8107 3.01663 20.9803 3.18627Q21.235 3.44088 21.4293 3.7353C21.5466 3.91303 21.6474 4.10156 21.7317 4.3009C21.8158 4.4997 21.8806 4.70273 21.9263 4.91C21.9805 5.15614 22.0076 5.40824 22.0076 5.66632L22.0076 20.5197C22.0076 20.7778 21.9805 21.0299 21.9263 21.276C21.8806 21.4833 21.8158 21.6863 21.7317 21.8851C21.6474 22.0845 21.5466 22.273 21.4293 22.4507C21.2997 22.647 21.1501 22.83 20.9803 22.9998C20.8108 23.1693 20.6279 23.3189 20.4316 23.4485C20.2539 23.5659 20.0652 23.6667 19.8657 23.7511Q19.5686 23.8768 19.2589 23.9452L19.2569 23.9457L19.2563 23.9458C19.0102 24 18.7582 24.027 18.5003 24.027L5.50732 24.027C5.24939 24.027 4.99741 24 4.7514 23.9458C4.54401 23.9002 4.34085 23.8353 4.14191 23.7511C3.94235 23.6667 3.75372 23.5659 3.57596 23.4485C3.37973 23.3189 3.19684 23.1693 3.02728 22.9998C2.85764 22.8301 2.70807 22.6472 2.57858 22.4511C2.46121 22.2733 2.36032 22.0847 2.27591 21.8851C2.19183 21.6863 2.12695 21.4833 2.0813 21.276C2.0271 21.0299 2 20.7778 2 20.5197L2 5.66632C2 5.40821 2.0271 5.15607 2.08133 4.90991C2.12701 4.70256 2.19189 4.49956 2.27591 4.3009C2.36032 4.10136 2.46121 3.9127 2.57858 3.73494C2.70807 3.5388 2.85764 3.35591 3.02728 3.18627C3.19693 3.01663 3.37979 2.86707 3.57593 2.73757Q3.58238 2.73331 3.58885 2.72908Q3.84995 2.55839 4.14191 2.43491C4.34052 2.35091 4.54333 2.28609 4.7504 2.24044L4.75143 2.24022L4.75235 2.24002C4.99808 2.186 5.24973 2.159 5.50732 2.159Z" fill="rgb(0,0,0)" fill-rule="evenodd" />
	<rect id="矩形 2" width="11.1627922" height="3.72093105" x="6.4223938" y="1" rx="1.39534914" stroke="rgb(0,0,0)" stroke-width="1.39534914" />
	<path id="直线 1" d="M0 0L4.65116 0" stroke="rgb(0,0,0)" stroke-linecap="round" stroke-width="1.39534914" transform="matrix(0.707107,0.707107,-0.707107,0.707107,7.35263,13.5912)" />
	<path id="直线 2" d="M0 0L9.30233 0" stroke="rgb(0,0,0)" stroke-linecap="round" stroke-width="1.39534914" transform="matrix(0.707107,-0.707107,0.707107,0.707107,10.6415,16.8801)" />
</svg>
