<svg viewBox="0 0 24 24" xmlns="http://www.w3.org/2000/svg" xmlns:xlink="http://www.w3.org/1999/xlink">
	<defs/>
	<g opacity="0.000000"/>
	<path id="path4 (边框)" d="M7.99 6.11L4.59 8.53L17.56 8.53C17.87 8.53 18.18 8.56 18.49 8.62C18.84 8.69 19.17 8.81 19.5 8.96C19.68 9.04 19.84 9.13 20 9.23C20.39 9.47 20.75 9.77 21.07 10.12C21.22 10.29 21.36 10.45 21.48 10.63C21.74 11 21.95 11.39 22.12 11.82C22.21 12.06 22.28 12.3 22.34 12.54C22.44 12.98 22.5 13.43 22.5 13.89C22.5 14.35 22.44 14.8 22.34 15.23C22.28 15.48 22.21 15.71 22.12 15.95C21.95 16.38 21.74 16.78 21.48 17.14C21.36 17.32 21.22 17.49 21.07 17.65C20.75 18 20.39 18.3 20 18.54C19.84 18.64 19.68 18.73 19.5 18.81C19.17 18.97 18.84 19.08 18.49 19.15C18.18 19.21 17.87 19.25 17.56 19.25L4.02 19.25C3.6 19.25 3.27 18.91 3.27 18.5C3.27 18.07 3.6 17.75 4.02 17.75L17.56 17.75C17.76 17.75 17.97 17.73 18.16 17.69C18.41 17.64 18.64 17.56 18.87 17.45C18.95 17.41 19.03 17.37 19.11 17.33C19.43 17.15 19.71 16.92 19.96 16.64C20.05 16.55 20.13 16.45 20.2 16.35C20.41 16.07 20.58 15.75 20.72 15.41C20.77 15.26 20.82 15.11 20.86 14.96C20.95 14.61 21 14.26 21 13.89C21 13.52 20.95 13.16 20.86 12.82C20.82 12.66 20.77 12.51 20.72 12.36C20.58 12.02 20.41 11.71 20.2 11.42C20.13 11.32 20.05 11.23 19.96 11.13C19.71 10.85 19.43 10.62 19.11 10.45C19.03 10.4 18.95 10.36 18.87 10.32C18.64 10.21 18.41 10.14 18.16 10.09C17.97 10.05 17.76 10.03 17.56 10.03L2.25 10.03C2.12 10.03 2.01 10 1.9 9.95C1.79 9.89 1.7 9.81 1.63 9.71C1.51 9.55 1.47 9.36 1.51 9.15C1.54 8.95 1.64 8.79 1.81 8.67L7.12 4.88C7.46 4.64 7.92 4.72 8.17 5.06C8.41 5.4 8.33 5.86 7.99 6.11Z" fill-opacity="1.000000" fill-rule="evenodd"/>
</svg>
