<svg width="16.000000" height="16.000000" viewBox="0 0 16 16" fill="none"
	xmlns="http://www.w3.org/2000/svg"
	xmlns:xlink="http://www.w3.org/1999/xlink">
	<desc>
			Created with Pixso.
	</desc>
	<defs>
		<clipPath id="clip15_980">
			<rect id="固定-fixed" width="16.000000" height="16.000000" fill="#191919" fill-opacity="1"/>
		</clipPath>
	</defs>
	<g clip-path="url(#clip15_980)">
		<path id="形状结合" d="M10.68 1.86C11.1 1.51 11.72 1.54 12.1 1.92L14.07 3.89C14.45 4.27 14.48 4.89 14.13 5.3L11.3 8.66L11.68 9.04C12.06 9.42 12.08 10.01 11.76 10.43L11.68 10.52L9.75 12.45C9.34 12.86 8.67 12.86 8.26 12.45L6.25 10.44L2.93 13.77C2.73 13.97 2.41 13.97 2.22 13.77C2.02 13.58 2.02 13.26 2.22 13.06L5.55 9.74L3.54 7.72C3.15 7.34 3.13 6.73 3.47 6.31L3.54 6.24L5.46 4.31C5.87 3.9 6.54 3.9 6.95 4.31L7.33 4.69L10.68 1.86ZM11.35 2.62L7.27 6.05L6.24 5.02C6.22 5 6.19 5 6.17 5.02L4.24 6.95C4.22 6.97 4.22 7 4.24 7.02L8.97 11.75C8.99 11.76 9.02 11.76 9.04 11.75L10.97 9.82C10.99 9.8 10.99 9.77 10.97 9.75L9.94 8.72L13.36 4.66C13.38 4.64 13.38 4.61 13.36 4.59L11.35 2.62Z" fill="#191919" fill-opacity="1.000000" fill-rule="nonzero"/>
	</g>
</svg>
